<?xml version="1.0" standalone="no"?>
<!DOCTYPE svg PUBLIC "-//W3C//DTD SVG 20010904//EN"
 "http://www.w3.org/TR/2001/REC-SVG-20010904/DTD/svg10.dtd">
<svg version="1.0" xmlns="http://www.w3.org/2000/svg"
 width="1280.000000pt" height="1277.000000pt" viewBox="0 0 1280.000000 1277.000000"
 preserveAspectRatio="xMidYMid meet">

<g transform="translate(0.000000,1277.000000) scale(0.100000,-0.100000)"
fill="#000000" stroke="none">
<path d="M6025 12754 c-740 -50 -1406 -216 -2096 -522 -926 -411 -1713 -1020
-2383 -1842 -215 -264 -525 -702 -688 -974 -249 -414 -473 -920 -611 -1386
-424 -1422 -296 -3027 357 -4493 112 -250 154 -326 279 -502 725 -1020 1333
-1638 2011 -2045 49 -29 117 -74 151 -101 71 -54 205 -123 450 -232 974 -431
1943 -656 2837 -657 432 0 1016 79 1517 205 1386 351 2538 1105 3507 2295 350
430 611 850 846 1365 97 212 156 362 249 635 364 1061 445 2237 228 3322 -135
677 -385 1327 -740 1920 -401 671 -973 1316 -1554 1753 -1176 884 -2834 1363
-4360 1259z m570 -101 c-4 -21 -15 -49 -26 -64 -27 -38 -24 -69 13 -113 39
-48 98 -75 161 -76 41 0 47 3 47 21 0 12 -21 41 -50 69 -27 27 -50 56 -50 65
0 22 46 64 100 89 112 52 581 10 1050 -94 806 -180 1559 -517 2030 -908 64
-54 200 -181 200 -187 0 -2 -23 12 -51 31 -60 40 -67 41 -78 12 -11 -30 4 -61
39 -81 39 -24 67 -21 86 8 22 34 67 34 99 0 31 -34 75 -46 120 -34 41 12 50 6
215 -140 276 -244 518 -506 970 -1046 269 -322 322 -401 465 -698 114 -236
258 -600 378 -957 37 -109 222 -647 241 -700 23 -65 20 -78 -24 -126 -22 -24
-40 -52 -40 -61 0 -20 53 -237 65 -266 6 -13 3 -16 -9 -11 -31 12 -66 102 -85
214 -6 36 -18 109 -26 162 -9 54 -22 114 -29 134 l-12 37 -12 -29 c-58 -152
-30 -435 64 -642 62 -136 91 -157 145 -106 15 14 32 23 38 20 14 -9 33 -109
26 -142 -4 -16 -23 -64 -42 -108 -20 -43 -38 -101 -41 -127 -4 -44 -2 -49 15
-49 11 0 30 11 43 25 13 14 32 25 42 25 30 0 24 -117 -13 -269 -18 -69 -37
-162 -43 -206 -14 -97 -31 -107 -85 -49 l-34 36 -16 -29 c-24 -45 -18 -126 12
-171 23 -35 40 -47 101 -66 21 -7 21 -6 -5 -261 -6 -60 -9 -171 -7 -245 3
-123 1 -135 -15 -138 -12 -3 -21 6 -28 27 -13 38 -31 39 -58 5 -23 -29 -29
-46 -71 -213 -16 -63 -37 -123 -47 -133 -17 -20 -51 -20 -94 -3 -14 5 -19 -5
-28 -58 -17 -97 -14 -125 14 -152 17 -18 35 -25 62 -25 55 0 85 19 110 70 l22
45 1 -44 c0 -67 -36 -174 -99 -296 -35 -67 -69 -149 -86 -210 -15 -55 -28
-101 -29 -102 -1 -1 -2 44 -2 100 0 68 -6 121 -17 159 l-18 58 -32 -13 c-43
-18 -56 -49 -66 -154 -9 -99 -25 -138 -122 -313 -84 -149 -109 -211 -116 -287
l-6 -63 34 12 c82 27 171 105 228 198 31 52 26 33 -30 -107 -312 -785 -822
-1454 -1543 -2025 -86 -68 -102 -86 -121 -132 -12 -29 -37 -74 -56 -101 -41
-57 -255 -235 -283 -235 -11 0 -32 11 -46 25 l-27 26 -95 -63 c-53 -35 -164
-106 -248 -158 -181 -113 -262 -179 -345 -280 -58 -71 -69 -79 -194 -144
l-133 -68 -39 38 -39 38 -68 -11 c-68 -12 -140 -45 -424 -196 -89 -48 -154
-75 -220 -91 l-93 -24 -3 -45 -3 -45 -87 -4 c-101 -6 -181 -31 -259 -83 -45
-30 -54 -33 -59 -20 -4 9 1 33 11 54 11 26 15 49 10 69 -5 26 -14 33 -58 48
-32 11 -84 17 -137 18 -98 0 -168 -20 -321 -90 -140 -64 -181 -75 -284 -73
-85 2 -91 1 -102 -21 -12 -25 -10 -30 38 -108 14 -21 19 -41 15 -57 -6 -24 -7
-24 -159 -27 -350 -7 -878 13 -1127 43 -377 45 -743 130 -945 220 -67 29 -21
21 61 -11 185 -74 301 -94 400 -69 41 11 45 14 39 36 -32 128 -225 250 -472
298 -92 18 -304 31 -356 21 -35 -6 -36 -8 -26 -34 16 -41 46 -70 134 -127 86
-57 147 -113 110 -102 -74 21 -680 232 -765 267 -149 60 -288 133 -383 202
-142 103 -234 161 -507 318 -324 186 -475 288 -588 394 -169 160 -195 257 -31
116 118 -102 158 -123 231 -123 33 1 64 5 69 10 14 14 -106 123 -190 173 -79
47 -174 80 -231 80 -32 0 -55 14 -161 94 -256 195 -426 373 -538 565 -18 29
-29 56 -26 59 3 3 49 -24 103 -61 95 -65 171 -102 192 -95 14 4 -77 156 -136
225 -94 109 -206 168 -280 145 -41 -12 -39 -14 -139 117 -176 231 -440 674
-428 720 3 12 8 21 10 21 3 0 23 -16 44 -35 68 -61 78 -37 28 63 -33 67 -75
107 -156 149 -45 24 -54 33 -60 63 -7 39 -60 174 -96 247 -50 99 -71 175 -71
256 -1 77 -1 79 -27 84 -33 6 -41 21 -78 153 -192 677 -253 1428 -180 2225 32
354 83 660 174 1050 19 83 45 193 57 245 24 107 71 219 112 268 15 17 31 32
34 32 4 0 7 -49 7 -109 0 -60 3 -113 8 -117 15 -16 56 39 68 92 13 60 2 159
-32 275 l-19 65 24 65 c43 118 64 151 231 369 176 229 225 324 250 490 7 45
84 160 256 385 328 428 815 924 1249 1272 338 271 722 529 1110 745 145 81
480 251 485 246 1 -2 -2 -33 -7 -70 -6 -41 -7 -82 -1 -105 9 -40 24 -47 115
-60 30 -4 39 -1 45 12 10 27 -10 49 -53 61 -21 6 -40 17 -42 25 -5 25 51 91
120 143 35 28 77 66 92 87 24 31 41 40 105 59 42 13 103 31 136 42 96 30 468
128 565 148 25 5 77 17 115 25 178 40 418 77 635 100 181 19 223 21 444 23
l178 2 -7 -37z m5606 -8474 c-12 -39 -25 -69 -27 -66 -3 3 5 37 17 76 13 39
25 69 27 66 2 -2 -6 -36 -17 -76z"/>
<path d="M5490 12561 c-88 -18 -171 -99 -155 -151 16 -50 127 -110 204 -110
48 0 108 31 96 50 -3 4 -29 11 -59 14 -63 8 -106 37 -106 70 0 32 19 53 70 78
57 29 66 59 18 57 -18 -1 -49 -4 -68 -8z"/>
<path d="M7885 12375 c-20 -19 -25 -34 -25 -73 0 -46 2 -50 45 -81 24 -17 60
-38 80 -47 34 -14 130 -22 141 -11 12 11 -11 62 -57 125 -28 37 -52 77 -55 90
-5 19 -13 22 -56 22 -39 0 -54 -5 -73 -25z"/>
<path d="M6884 12281 c-29 -10 -84 -37 -123 -60 l-72 -42 3 -87 3 -86 63 -33
c37 -19 79 -33 99 -33 34 0 35 1 31 33 -3 17 -11 53 -19 79 -22 77 -10 95 100
149 108 54 123 69 83 86 -38 17 -108 15 -168 -6z"/>
<path d="M5615 12184 c-48 -18 -100 -65 -128 -119 -33 -62 -30 -166 6 -228 27
-46 29 -47 75 -46 77 2 97 11 100 45 2 22 -7 42 -32 75 -19 25 -36 52 -38 60
-6 27 41 88 112 146 l71 58 -28 12 c-37 16 -89 15 -138 -3z"/>
<path d="M8994 11973 c-18 -42 -18 -77 1 -141 34 -115 202 -245 334 -258 77
-8 77 -4 11 101 -56 89 -67 129 -53 192 10 44 10 45 -26 68 -51 34 -116 56
-190 64 l-64 7 -13 -33z"/>
<path d="M4440 11932 c-106 -53 -190 -192 -190 -313 0 -55 3 -64 31 -90 17
-16 40 -29 50 -29 17 0 19 8 19 65 0 103 48 190 208 378 14 16 12 17 -24 17
-22 0 -62 -12 -94 -28z"/>
<path d="M8043 11900 c-62 -35 -69 -54 -54 -135 22 -116 95 -194 189 -202 76
-6 79 1 37 108 -37 97 -45 161 -27 210 14 35 -1 49 -52 49 -27 0 -59 -11 -93
-30z"/>
<path d="M7097 11770 c-95 -24 -169 -88 -213 -185 -73 -159 -3 -305 146 -305
50 0 52 1 37 18 -26 29 -57 105 -57 143 0 61 47 137 144 231 49 49 87 90 85
92 -10 11 -107 14 -142 6z"/>
<path d="M5784 11639 c-45 -13 -115 -79 -147 -137 -18 -34 -30 -73 -34 -115
-9 -104 24 -173 101 -208 94 -43 113 -9 45 82 -37 49 -40 58 -36 102 6 65 29
93 123 149 79 47 129 92 119 107 -6 11 -87 31 -117 30 -13 0 -37 -5 -54 -10z"/>
<path d="M3445 11502 c-60 -21 -133 -69 -170 -114 -58 -68 -80 -157 -52 -203
11 -19 25 -7 192 157 l180 178 -50 -1 c-27 0 -72 -8 -100 -17z"/>
<path d="M9848 11479 c-2 -6 1 -31 6 -55 10 -41 13 -44 43 -44 30 0 33 3 33
30 0 44 -70 104 -82 69z"/>
<path d="M9620 11425 c-16 -20 -4 -50 26 -63 34 -16 96 -15 118 1 17 12 15 16
-30 45 -51 34 -94 41 -114 17z"/>
<path d="M10010 11379 c-256 -42 -337 -71 -333 -122 3 -51 58 -113 130 -149
65 -32 71 -33 183 -32 94 1 132 7 205 29 50 15 106 32 125 37 32 10 43 7 113
-28 180 -91 313 -238 362 -400 13 -45 13 -48 -8 -65 -96 -81 -247 -23 -420
160 -81 87 -94 92 -166 71 -42 -12 -57 -4 -36 20 18 20 49 34 113 50 42 11 43
12 36 46 -7 38 -7 38 69 17 22 -6 24 34 2 63 -8 10 -15 27 -15 38 0 16 -5 18
-42 12 -24 -4 -91 -25 -150 -46 -60 -22 -122 -40 -139 -40 -36 0 -37 12 7
-150 21 -82 28 -128 28 -210 1 -58 -2 -117 -7 -132 l-7 -28 95 0 c94 0 95 0
95 25 0 19 -10 29 -39 45 -47 23 -58 38 -36 46 24 9 102 -24 125 -53 30 -38
26 -62 -15 -79 -47 -19 -70 -55 -55 -84 14 -27 49 -40 108 -40 26 -1 61 -7 77
-14 l30 -13 -40 -17 c-106 -45 -308 -97 -322 -82 -10 10 19 47 50 62 101 51
93 73 -47 118 -207 66 -275 69 -321 14 -14 -16 -25 -33 -25 -37 0 -5 21 -11
48 -15 51 -7 113 -35 149 -69 13 -11 53 -66 89 -121 71 -108 103 -146 147
-178 27 -19 29 -19 47 -3 10 9 22 31 26 49 10 50 17 53 101 48 113 -7 153 -33
71 -46 -34 -6 -223 -78 -236 -91 -2 -2 8 -38 23 -81 36 -103 33 -208 -5 -249
-48 -51 -77 -57 -325 -65 -185 -5 -238 -10 -270 -24 -34 -15 -37 -19 -23 -27
10 -5 53 -14 95 -19 111 -12 153 -32 153 -72 0 -24 -25 -23 -57 2 -28 22 -50
25 -72 11 -13 -8 -12 -15 4 -50 28 -62 88 -111 223 -181 68 -35 119 -66 115
-70 -4 -4 -46 -15 -93 -24 -113 -21 -263 -20 -370 3 -47 11 -85 18 -86 18 0
-1 -13 -18 -27 -38 -15 -20 -27 -45 -27 -56 0 -18 8 -21 60 -25 38 -3 67 -10
77 -21 16 -15 15 -19 -6 -57 -27 -48 -24 -66 25 -180 19 -44 38 -103 41 -130
5 -46 8 -50 32 -50 15 0 59 9 99 20 94 26 162 26 193 0 l24 -19 -41 -1 c-41 0
-64 -16 -77 -52 -6 -16 -10 -16 -43 7 -45 30 -102 32 -159 6 -47 -21 -95 -73
-95 -102 0 -31 19 -61 33 -52 7 4 66 10 132 14 125 6 176 22 189 56 6 14 10
12 26 -15 11 -18 27 -35 35 -38 28 -11 15 -24 -24 -24 -50 0 -89 -15 -121 -45
-25 -24 -26 -24 -75 -9 -79 25 -183 13 -370 -42 -146 -42 -170 -46 -272 -48
l-113 -1 0 -61 0 -61 29 5 c40 6 71 -13 71 -44 0 -24 -3 -25 -27 -19 -16 4
-44 7 -63 6 -44 -2 -90 -48 -90 -91 0 -35 23 -50 74 -50 37 0 52 -12 39 -32
-4 -7 -13 -29 -18 -48 -11 -37 -48 -58 -38 -22 11 43 -54 72 -110 48 -42 -17
-56 -53 -38 -93 11 -25 14 -25 77 -19 l65 7 -6 -38 c-11 -65 -25 -112 -34
-118 -14 -8 -51 44 -51 71 0 22 -4 24 -49 24 -61 0 -101 -14 -101 -36 0 -9 17
-31 38 -50 130 -118 132 -121 132 -152 0 -30 -2 -31 -26 -22 -46 18 -93 12
-120 -15 -33 -33 -27 -47 27 -62 84 -24 90 -30 83 -84 -6 -47 -6 -48 47 -96
119 -109 115 -104 94 -119 -13 -10 -50 -14 -122 -14 -102 0 -103 0 -103 -24 0
-37 62 -120 92 -124 14 -2 54 8 89 22 75 31 105 33 119 7 20 -39 13 -50 -27
-40 -21 5 -59 9 -85 9 -62 0 -77 -22 -42 -65 22 -27 31 -55 19 -55 -3 0 -25
16 -51 35 -36 28 -55 35 -90 35 -42 0 -44 1 -44 29 0 35 -28 72 -86 111 l-44
31 -16 -41 c-24 -59 -68 -93 -116 -88 -21 2 -38 1 -38 -2 0 -21 42 -56 94 -80
71 -32 93 -53 102 -100 l7 -33 -34 25 c-19 14 -58 38 -88 54 -35 19 -59 39
-69 60 l-15 32 -51 -14 c-28 -8 -68 -14 -88 -14 -36 0 -38 -2 -73 -72 -19 -40
-39 -93 -43 -118 l-8 -45 -47 3 c-54 4 -83 -10 -109 -55 l-17 -30 39 -16 c39
-15 52 -39 29 -53 -6 -3 -17 -22 -25 -40 -16 -39 -22 -40 -81 -18 -41 16 -44
16 -63 -1 -28 -25 -34 -67 -16 -110 18 -43 20 -59 6 -50 -5 3 -24 -1 -43 -9
-27 -11 -38 -24 -51 -62 -9 -26 -16 -49 -16 -51 0 -2 13 -3 29 -3 35 0 76 -44
86 -92 4 -18 18 -48 32 -65 22 -30 23 -33 5 -33 -10 0 -24 11 -30 25 -8 18
-19 25 -39 25 -24 0 -30 -6 -41 -41 -15 -49 -12 -54 36 -69 92 -28 92 -28 92
-80 0 -71 27 -143 99 -260 116 -191 135 -224 163 -294 29 -70 35 -106 19 -106
-27 0 -85 76 -126 166 -70 152 -78 166 -109 202 -16 18 -42 40 -57 47 -24 13
-27 19 -22 48 7 44 -18 92 -60 117 -60 37 -88 18 -108 -68 l-13 -53 32 -27
c20 -17 50 -67 82 -135 49 -106 49 -108 21 -88 -16 12 -55 54 -87 95 -67 84
-91 103 -107 87 -6 -6 -22 -11 -36 -11 -63 -1 -70 -49 -22 -134 36 -62 38 -81
11 -96 -16 -9 -22 -6 -33 17 -8 16 -18 39 -22 52 -4 13 -14 39 -21 57 l-14 33
-61 -28 c-33 -16 -87 -32 -120 -36 -54 -6 -59 -9 -59 -32 0 -37 -16 -60 -47
-67 -91 -22 -101 -27 -107 -48 -8 -31 17 -64 59 -78 40 -13 45 -34 13 -51 -36
-19 -127 -5 -211 34 -42 20 -79 31 -82 26 -4 -5 -15 -9 -26 -9 -26 0 -25 -39
1 -73 24 -30 59 -43 158 -56 41 -5 76 -12 79 -14 2 -3 -12 -29 -31 -57 -72
-104 -83 -223 -33 -334 22 -48 24 -56 11 -67 -23 -19 -44 -65 -44 -94 0 -14
19 -76 42 -138 42 -114 63 -224 38 -200 -7 6 -25 53 -40 105 l-28 93 -87 0
-88 0 -34 -68 c-36 -72 -63 -186 -63 -268 0 -31 -4 -48 -10 -44 -5 3 -10 24
-10 47 0 34 -3 39 -17 34 -10 -3 -58 -20 -108 -38 -87 -31 -96 -32 -245 -33
-121 0 -168 4 -212 18 -49 15 -58 21 -58 41 0 12 -14 50 -31 84 l-30 62 19 27
c11 16 22 37 26 49 6 19 -3 83 -20 143 -6 21 -5 23 17 18 77 -19 72 -21 104
34 55 94 187 187 290 204 88 14 95 17 95 34 0 10 11 28 25 41 14 13 25 31 25
41 0 25 -92 104 -158 135 -81 39 -203 45 -300 15 -240 -73 -411 -324 -373
-546 6 -36 14 -72 17 -80 5 -12 -2 -15 -30 -15 -35 0 -36 -1 -36 -35 0 -30 5
-39 35 -56 19 -12 35 -24 35 -28 0 -3 -15 -11 -34 -17 -29 -9 -37 -7 -62 14
-23 20 -35 23 -76 20 -27 -3 -54 -10 -59 -15 -16 -16 16 -70 50 -87 62 -33
235 -32 248 1 3 8 -4 27 -16 43 -23 31 -27 65 -10 75 5 4 37 -18 69 -49 32
-31 63 -56 69 -56 6 0 11 -4 11 -9 0 -5 -35 -17 -77 -27 l-78 -19 3 -65 c5
-143 72 -413 128 -523 l16 -29 76 7 c61 5 81 3 97 -9 18 -14 9 -15 -106 -16
l-126 0 -33 83 c-36 92 -80 255 -80 298 0 29 0 29 -64 29 -60 0 -64 -1 -70
-26 -9 -34 0 -83 35 -186 30 -89 35 -118 21 -118 -11 0 -78 142 -106 224 l-21
61 -58 3 c-54 3 -58 2 -67 -24 -6 -14 -7 -48 -4 -75 4 -26 3 -61 -1 -76 l-7
-28 -13 25 c-8 14 -14 38 -15 53 0 23 -4 27 -19 22 -66 -20 -214 -37 -388 -42
-201 -6 -203 -6 -203 -28 0 -13 11 -30 26 -39 18 -13 24 -24 22 -44 -5 -42
-56 -69 -143 -77 -68 -7 -76 -10 -81 -31 -8 -30 10 -52 54 -71 39 -16 49 -37
31 -60 -9 -11 -14 -42 -13 -92 0 -61 8 -100 41 -201 50 -150 56 -179 45 -209
l-8 -22 -14 25 c-12 24 -102 76 -129 76 -6 0 -11 5 -11 10 0 6 11 10 24 10 47
0 56 9 56 59 0 39 -5 52 -30 76 -32 31 -42 29 -111 -17 l-26 -17 -18 53 c-10
29 -15 61 -11 71 6 17 9 16 34 -7 31 -29 56 -40 76 -32 12 5 12 10 1 32 -7 15
-17 45 -22 67 l-8 40 -55 -3 c-30 -2 -85 5 -123 14 -44 10 -87 14 -118 11
l-49 -6 0 43 c0 28 -5 46 -14 49 -24 9 -90 -11 -108 -34 -37 -45 -29 -51 142
-99 121 -34 176 -57 165 -68 -4 -4 -69 -9 -145 -12 -138 -5 -139 -5 -150 18
-5 13 -10 34 -10 47 0 24 -3 25 -65 25 -52 0 -65 -3 -65 -15 0 -30 -30 -75
-61 -91 -23 -11 -65 -16 -164 -17 -109 -2 -137 -5 -151 -18 -24 -25 -10 -52
41 -77 47 -23 58 -49 30 -72 -23 -19 -36 -83 -45 -211 -8 -125 -25 -188 -27
-96 -1 59 -52 228 -71 235 -7 2 -30 -15 -51 -38 -34 -37 -41 -41 -60 -31 -19
11 -21 9 -21 -19 0 -36 16 -70 59 -124 37 -47 39 -63 6 -78 -35 -16 -72 12
-97 73 l-21 49 -191 0 c-105 0 -220 -5 -256 -10 -73 -12 -174 -57 -208 -93
l-23 -24 35 -89 c18 -49 50 -124 70 -168 20 -43 36 -80 36 -81 0 -1 -20 -8
-45 -15 -41 -12 -47 -11 -59 6 -8 10 -19 43 -26 73 -21 94 -27 101 -81 101
-36 0 -55 -6 -75 -23 l-27 -23 80 -66 c163 -137 258 -261 279 -368 6 -26 11
-31 32 -28 25 3 28 7 53 63 l14 30 3 -37 c5 -57 42 -82 112 -75 30 3 62 8 71
12 15 5 15 1 6 -38 -13 -58 -6 -74 37 -82 45 -9 100 10 126 42 11 14 22 24 23
22 84 -123 271 -241 403 -255 l59 -6 -77 76 c-140 137 -363 286 -548 367 -84
36 -226 83 -280 92 -14 2 -4 5 23 6 38 1 47 4 47 19 0 23 -29 66 -64 93 -26
20 -56 73 -56 99 0 16 46 2 148 -47 52 -24 96 -43 98 -40 2 2 12 28 22 58 11
34 23 55 35 57 15 3 17 -5 17 -63 0 -74 12 -105 39 -105 23 0 46 26 65 72 25
59 36 56 36 -10 0 -72 5 -74 121 -65 l77 6 6 32 c8 39 41 85 62 85 28 0 47
-70 52 -190 l4 -115 -38 -17 c-22 -10 -49 -32 -61 -50 l-22 -32 37 -16 c25
-11 56 -42 95 -93 74 -99 95 -110 160 -82 14 6 17 2 17 -26 1 -73 59 -149 114
-149 21 0 46 39 46 70 0 32 -26 56 -105 99 -82 45 -105 68 -105 105 -1 17 -7
48 -14 68 l-13 37 29 -15 c18 -9 41 -13 55 -9 22 5 23 4 13 -15 -20 -38 7 -85
84 -141 21 -16 43 -29 49 -29 6 0 8 24 4 62 -6 65 4 98 28 98 17 0 18 -18 15
-333 l-2 -199 24 7 c101 28 110 51 74 178 -31 112 -32 132 -5 177 24 39 20 42
86 -53 39 -57 106 -96 179 -106 67 -9 75 1 49 58 -19 43 -17 76 5 76 8 0 23
-25 36 -64 24 -69 38 -84 69 -75 20 6 33 19 69 70 l20 28 9 -22 c15 -33 46
-36 113 -11 82 30 84 33 77 88 -4 33 -1 51 7 56 21 13 28 -7 33 -95 l5 -85
-48 -45 c-47 -45 -70 -78 -70 -101 0 -6 27 -38 60 -71 33 -32 60 -63 60 -68 0
-5 -19 -8 -42 -7 -40 2 -43 0 -46 -27 l-4 -29 149 7 c143 7 355 30 371 40 5 3
22 -3 38 -13 97 -58 217 -85 374 -84 191 0 324 40 415 124 52 48 70 78 80 130
5 29 1 44 -26 88 -46 74 -50 142 -14 236 15 39 37 100 50 137 l23 67 -39 36
c-63 57 -67 54 -120 -112 l-30 -93 -25 29 c-30 36 -30 45 1 109 13 28 35 85
47 126 l22 75 61 -59 c62 -59 98 -77 135 -67 17 4 20 0 20 -27 0 -24 9 -41 35
-66 19 -19 35 -42 35 -52 0 -25 -12 -23 -38 7 -46 53 -65 28 -107 -139 -15
-60 -32 -119 -37 -132 -9 -20 -5 -33 30 -86 23 -35 50 -69 61 -75 18 -11 23
-10 36 11 9 14 19 50 22 81 3 30 10 58 15 61 15 10 59 -26 73 -60 8 -18 26
-38 40 -44 26 -12 27 -12 20 17 -5 22 2 45 24 90 17 33 31 69 31 80 0 26 -56
71 -89 71 -36 0 -51 -17 -51 -56 0 -39 -9 -64 -22 -64 -10 0 -3 90 12 149 10
37 57 111 72 111 5 0 4 -9 -2 -21 -24 -45 9 -98 92 -148 44 -26 46 -24 72 80
26 105 23 121 -26 149 -53 28 -88 59 -88 77 0 19 14 16 36 -8 29 -32 70 -50
122 -53 46 -3 47 -3 44 -35 -1 -18 -11 -50 -22 -71 -32 -63 -23 -110 22 -110
28 0 32 25 14 71 -9 23 -15 43 -12 46 2 2 31 -9 65 -26 46 -24 73 -31 113 -30
99 1 99 6 -4 98 -108 98 -171 168 -199 223 -31 60 -17 56 36 -11 71 -91 122
-115 163 -78 16 15 17 13 14 -27 -4 -40 -1 -44 37 -69 l40 -27 31 45 c48 70
66 53 35 -35 -20 -57 -20 -57 18 -80 41 -26 91 -25 184 2 70 20 73 22 51 34
-13 7 -82 66 -154 131 l-131 118 30 15 c17 8 39 27 50 42 23 31 34 114 20 155
-10 27 -9 28 26 29 20 1 45 4 57 8 20 7 21 5 17 -41 -4 -41 -1 -52 21 -75 26
-29 54 -35 86 -18 26 14 40 42 57 114 7 33 19 66 25 73 17 20 38 15 38 -9 0
-13 4 -28 8 -35 12 -19 124 -62 121 -46 -4 22 3 32 30 41 29 10 29 10 24 -23
-13 -77 81 -150 148 -115 18 10 19 7 19 -38 0 -26 5 -53 12 -60 21 -21 54 -14
67 14 11 24 14 25 60 19 43 -6 51 -4 60 14 24 44 4 63 -82 75 -22 3 -46 11
-54 18 -13 11 -13 13 4 19 30 12 83 -1 156 -39 83 -42 111 -40 206 17 82 48
128 58 169 37 26 -14 31 -14 36 -1 8 21 -2 41 -30 60 -31 20 -31 45 -1 45 13
0 47 -7 77 -16 54 -16 102 -13 127 7 9 9 13 43 13 133 l0 121 -61 29 c-62 30
-100 69 -83 86 6 6 39 -9 84 -35 111 -66 118 -65 152 20 26 64 49 95 70 95 16
0 7 -43 -22 -110 -17 -38 -33 -83 -36 -100 l-6 -30 76 0 c74 0 76 -1 71 -22
-12 -51 41 -72 81 -33 35 35 27 50 -27 48 -62 -3 -29 13 46 22 80 9 242 63
341 113 162 81 313 216 397 354 31 51 37 70 33 98 -15 102 -67 390 -76 420
-12 43 -13 40 5 40 31 0 61 -44 74 -107 20 -101 84 -135 130 -68 23 35 24 36
5 56 -10 12 -37 33 -58 46 -32 21 -36 27 -24 34 9 5 19 24 22 44 9 46 22 52
40 17 8 -16 30 -42 49 -58 32 -29 33 -30 13 -45 -25 -20 -15 -62 24 -99 29
-27 77 -46 87 -36 3 3 0 26 -6 52 -10 38 -9 56 4 99 11 39 12 61 5 80 -5 14
-10 28 -10 31 0 2 26 4 58 4 375 1 661 357 591 735 -11 61 -51 150 -99 220
-71 104 -99 189 -80 240 l11 30 25 -40 c13 -22 36 -78 50 -125 26 -85 80 -200
94 -200 20 0 26 136 9 209 -15 66 -59 148 -107 202 -23 26 -38 50 -34 53 5 3
12 19 15 36 4 16 10 30 15 30 4 0 20 -26 36 -57 15 -32 41 -81 58 -110 29 -48
33 -51 64 -46 26 4 44 -1 83 -26 32 -21 60 -31 77 -29 25 3 27 6 26 46 0 23
-1 47 -1 52 -1 15 -34 12 -59 -6 -13 -9 -24 -14 -25 -13 -13 22 -37 83 -33 86
2 2 26 -3 53 -13 77 -28 185 -24 256 8 233 108 349 534 231 850 -27 72 -93
171 -125 188 -16 9 -18 17 -13 51 6 33 3 44 -17 65 -49 53 -110 69 -129 35
-25 -47 -3 -109 57 -157 l28 -23 -48 -1 c-29 0 -49 5 -52 13 -2 6 -9 31 -15
54 -16 63 -47 94 -103 103 -37 5 -50 3 -62 -10 -14 -15 -12 -21 15 -61 29 -43
38 -69 23 -69 -16 1 -73 106 -71 129 2 19 12 27 49 37 54 16 72 34 67 66 -2
18 -10 24 -38 26 -67 5 -80 11 -80 37 0 23 3 25 28 19 41 -10 61 -22 125 -75
32 -27 65 -49 73 -49 7 0 20 12 27 26 l14 26 67 -63 c37 -34 77 -80 88 -102
l20 -40 101 5 c120 6 178 28 244 94 117 118 167 359 146 712 -6 100 -15 178
-22 185 -8 8 -25 7 -62 -2 -37 -10 -54 -10 -62 -2 -20 20 17 42 82 50 66 8 86
21 96 62 6 25 3 28 -47 44 -29 9 -72 30 -95 46 -58 41 -67 38 -61 -16 3 -25 2
-45 -3 -45 -5 0 -9 7 -9 15 0 24 -42 44 -105 50 -93 9 -125 15 -125 23 0 5 15
8 34 9 19 1 58 9 86 18 34 11 71 16 106 13 52 -4 54 -4 54 20 0 13 -17 51 -37
83 -42 65 -29 61 -135 43 -24 -4 -43 -2 -53 6 -26 21 -17 30 33 30 53 0 92 21
92 49 0 26 -83 116 -121 131 -30 13 -30 14 -11 21 35 13 167 22 209 14 l38 -7
-35 -19 c-19 -10 -45 -18 -57 -19 -20 0 -23 -5 -23 -36 0 -19 5 -44 11 -56 13
-25 67 -48 112 -48 32 0 97 17 97 26 0 2 -23 56 -51 119 -55 123 -107 193
-168 225 -34 18 -34 19 -10 20 30 0 49 17 49 44 0 17 2 18 18 4 9 -9 27 -19
40 -22 18 -6 22 -15 22 -48 0 -42 29 -108 78 -181 65 -94 79 -165 47 -227 -15
-30 -15 -30 11 -30 38 0 83 -24 150 -81 65 -55 122 -89 153 -89 26 0 101 87
137 159 27 51 29 65 29 161 0 125 -10 160 -125 431 -119 280 -134 348 -145
686 -3 105 -10 204 -14 220 -5 21 -18 32 -48 43 -55 20 -73 38 -73 69 0 33 17
51 47 51 23 0 29 14 17 45 -4 9 -38 32 -76 51 -60 30 -88 58 -88 90 0 13 32 1
42 -16 17 -26 63 -28 50 -2 -5 9 -17 51 -26 92 -32 143 -65 185 -158 199 -62
10 -69 -2 -44 -72 22 -63 9 -83 -27 -41 -25 29 -27 29 -136 30 -118 0 -138 7
-126 43 5 17 11 20 28 14 61 -21 127 6 127 52 0 29 -79 118 -125 139 -19 10
-53 18 -74 19 l-39 1 29 27 c15 14 31 39 34 55 11 47 13 50 21 26 8 -28 58
-55 85 -47 18 6 19 3 13 -33 -8 -50 11 -87 73 -142 68 -60 91 -69 110 -45 7
11 11 29 8 40 -3 11 -9 35 -12 54 -8 46 7 35 46 -34 30 -54 55 -75 86 -75 14
0 13 5 -6 32 -13 17 -64 114 -115 214 -51 100 -108 207 -127 236 -43 64 -108
141 -114 134 -2 -2 27 -65 66 -140 59 -113 71 -143 71 -183 l0 -48 -31 55
c-111 198 -251 363 -379 448 -65 44 -83 70 -45 64 53 -8 60 -7 63 14 3 20 -3
23 -60 29 -157 16 -229 38 -243 73 -9 24 1 25 73 7 64 -17 71 -17 92 -2 l23
16 -34 34 c-19 19 -60 44 -95 56 -66 24 -124 64 -111 77 4 5 22 2 40 -5 18 -8
47 -16 66 -18 l33 -5 -38 58 c-20 33 -64 102 -97 154 -157 252 -288 398 -407
457 -74 36 -179 57 -242 47 l-42 -7 18 28 c18 27 18 30 1 62 -10 18 -25 32
-34 32 -9 -1 -68 -10 -131 -20z m110 -115 c-22 -25 -45 -34 -137 -50 -48 -8
-104 -24 -123 -35 l-34 -21 -18 22 c-10 12 -18 33 -18 46 0 22 3 24 28 17 41
-12 128 -5 212 16 99 25 106 25 90 5z m643 -1045 c134 -88 247 -314 234 -468
-4 -54 -9 -68 -35 -94 -26 -26 -40 -31 -89 -35 -34 -2 -74 2 -97 11 -37 13
-41 18 -57 75 -28 98 -85 172 -133 172 -18 0 -22 15 -6 25 5 3 39 -1 75 -10
87 -22 105 -15 105 38 0 61 -26 94 -110 142 -41 23 -76 50 -78 59 -5 25 20 19
66 -15 57 -42 76 -34 69 29 -3 26 -8 59 -12 75 -10 36 9 36 68 -4z m-348 -464
c30 -29 33 -65 6 -65 -69 0 -113 34 -98 74 10 25 64 20 92 -9z m-51 -199 c37
-16 76 -60 76 -87 0 -24 -16 -24 -57 -1 -31 17 -103 77 -103 86 0 4 22 12 43
15 4 0 22 -5 41 -13z m-314 -131 c29 -15 64 -52 73 -77 5 -15 1 -18 -26 -18
-84 0 -137 36 -137 92 0 26 2 27 33 21 17 -3 43 -12 57 -18z m300 -31 c31 -27
76 -101 66 -111 -11 -12 -58 9 -79 35 -12 15 -37 41 -54 59 -21 20 -28 33 -20
36 28 12 57 5 87 -19z m1303 -190 c-22 -38 -26 -60 -26 -118 0 -84 19 -147 79
-268 24 -49 40 -88 35 -88 -17 0 -97 96 -120 143 -71 147 -66 290 13 352 44
35 48 31 19 -21z m-651 -9 c-60 -52 -96 -132 -96 -214 0 -36 6 -76 12 -88 11
-21 10 -23 -8 -23 -33 0 -54 61 -47 141 10 123 76 219 151 219 l30 0 -42 -35z
m-594 -12 c44 -18 108 -78 137 -127 48 -83 69 -172 68 -291 0 -126 -17 -198
-64 -269 -60 -90 -152 -118 -260 -77 -60 23 -159 96 -159 117 0 8 7 37 16 64
20 62 16 79 -25 107 -38 26 -30 30 20 9 58 -23 112 -29 134 -12 18 13 18 16 5
41 -22 40 -65 67 -123 74 l-52 6 25 23 c31 29 71 28 125 -4 49 -28 58 -26 81
17 12 24 13 37 4 63 -13 41 -74 100 -123 121 -21 8 -35 20 -32 25 10 16 37 12
70 -10 65 -43 82 -20 54 70 -10 34 -17 66 -14 70 7 11 69 1 113 -17z m-335
-169 c26 -4 44 -11 41 -16 -14 -21 -67 -31 -196 -34 -75 -1 -146 -8 -157 -14
-18 -9 -21 -8 -21 8 0 26 18 40 66 51 46 11 202 14 267 5z m-261 -160 c24 -26
56 -52 72 -59 l29 -12 -22 -22 c-12 -12 -34 -21 -51 -21 -28 0 -29 1 -18 26
11 24 9 29 -35 70 -26 24 -47 48 -47 54 0 23 32 7 72 -36z m2107 -227 c16 -24
33 -56 37 -70 10 -43 -17 -33 -49 17 l-27 44 -42 -15 c-82 -28 -82 -28 -52
-78 41 -70 26 -84 -23 -20 -28 36 -53 57 -73 62 -28 7 -29 10 -17 27 11 15 29
19 93 21 72 3 81 5 98 29 11 14 21 26 22 26 2 0 16 -20 33 -43z m14 -271 c9 0
17 0 17 -1 0 0 -6 -17 -14 -39 -7 -21 -16 -34 -20 -28 -3 6 -27 14 -51 18
l-45 6 23 28 c17 22 27 27 47 22 14 -3 33 -6 43 -6z m-239 -18 c8 -13 29 -60
46 -106 22 -59 40 -89 62 -105 25 -19 29 -26 23 -52 -3 -16 -9 -47 -12 -67 -3
-21 -9 -38 -13 -38 -19 0 -59 63 -65 102 -17 115 -29 151 -61 182 -26 26 -30
35 -23 55 6 15 5 28 -2 37 -9 11 -7 14 10 14 11 0 27 -10 35 -22z m-1994 -98
c31 0 96 9 146 20 96 21 154 25 154 11 0 -5 -14 -21 -31 -35 -30 -25 -36 -26
-133 -24 -136 4 -199 -22 -150 -62 22 -19 36 -48 25 -54 -14 -9 -100 73 -121
115 -31 60 -27 70 17 48 23 -12 58 -19 93 -19z m-263 -66 c7 -10 13 -29 13
-42 0 -21 -3 -23 -27 -18 -33 8 -73 49 -73 76 0 16 5 17 37 9 21 -4 43 -16 50
-25z m1848 -11 c-38 -88 -77 -203 -91 -273 -24 -111 -24 -288 -1 -348 20 -51
5 -46 -22 7 -51 99 -66 170 -66 311 0 120 3 141 23 185 27 59 66 102 107 121
43 19 59 18 50 -3z m757 -20 c47 -54 67 -142 49 -211 -11 -38 -14 -42 -34 -35
-35 13 -125 9 -139 -5 -9 -9 -12 -38 -11 -92 3 -85 14 -139 63 -291 16 -51 30
-96 30 -99 0 -12 -55 78 -77 127 -48 103 -73 219 -73 329 0 152 35 230 122
273 52 25 51 25 70 4z m-1227 -264 c88 -170 70 -412 -39 -527 -29 -32 -112
-83 -105 -65 2 4 21 42 41 83 21 41 47 111 58 155 29 117 27 299 -6 420 l-5
20 16 -20 c9 -11 27 -41 40 -66z m-1064 0 c79 -51 130 -132 150 -242 33 -181
-81 -419 -242 -503 -47 -25 -65 -29 -139 -29 -79 0 -90 3 -150 36 -57 31 -65
39 -65 65 0 23 7 32 32 44 18 8 33 23 33 32 0 17 -66 88 -82 88 -4 0 -8 5 -8
10 0 20 54 9 107 -21 91 -52 153 -40 153 30 0 43 -14 61 -48 61 -32 0 -23 24
10 28 14 2 41 -3 59 -11 44 -18 55 -13 79 34 36 70 23 98 -78 163 -36 22 -41
30 -31 42 16 20 20 19 78 -21 28 -19 54 -35 57 -35 4 0 4 41 1 91 -7 92 5 169
26 169 6 0 32 -14 58 -31z m-718 -528 c2 -14 8 -34 12 -43 11 -26 -7 -22 -50
12 -21 17 -44 30 -51 30 -18 0 -18 15 1 33 23 24 82 2 88 -32z m2451 -450 c-4
-9 -35 -95 -69 -191 -35 -96 -70 -193 -80 -214 -26 -60 -95 -158 -108 -153
-39 13 -50 243 -17 348 26 84 72 162 114 194 54 41 177 54 160 16z m-1060
-127 c13 -34 4 -81 -39 -209 -50 -148 -62 -219 -47 -283 l10 -44 -26 7 c-59
15 -102 63 -116 132 -19 86 55 271 144 361 55 56 65 61 74 36z m-409 -329 c94
-280 -57 -556 -326 -594 -35 -5 -65 -7 -67 -6 -2 2 18 18 45 36 76 53 210 187
248 248 40 67 75 186 75 256 0 44 -9 99 -26 160 -6 19 -5 19 10 -1 8 -12 27
-56 41 -99z m-1075 -25 c46 -92 63 -178 57 -290 -9 -150 -55 -261 -147 -357
-93 -98 -204 -140 -340 -130 -123 8 -149 20 -194 89 -26 40 -39 72 -40 97 -1
34 1 36 34 41 31 4 35 9 38 38 4 39 23 42 64 7 54 -46 118 -28 118 33 0 51 12
67 38 53 15 -8 34 -8 72 1 l52 12 -7 50 c-3 28 -9 68 -12 89 l-5 38 37 -15
c21 -9 41 -16 45 -16 5 0 6 26 3 58 -5 52 -2 62 26 107 25 39 31 60 31 102 l0
53 50 0 50 0 30 -60z m-928 -154 c10 -7 14 -16 8 -22 -5 -5 -10 -29 -12 -54
-3 -39 -6 -45 -28 -48 -21 -4 -22 -2 -11 12 11 13 12 24 2 55 -6 21 -11 46
-11 55 0 19 28 21 52 2z m213 -621 c30 -49 63 -100 74 -112 26 -27 26 -33 2
-33 -36 0 -71 43 -131 161 -33 66 -60 123 -60 126 0 21 70 -65 115 -142z
m2805 128 c0 -28 -24 -100 -73 -219 -83 -201 -111 -348 -88 -468 6 -33 9 -62
6 -64 -13 -13 -91 58 -119 108 -29 52 -31 61 -31 160 0 123 22 204 85 310 56
95 160 190 207 190 7 0 13 -8 13 -17z m-1030 -202 c0 -4 -50 -61 -111 -126
-60 -64 -125 -140 -144 -169 -45 -69 -74 -159 -76 -240 l-2 -67 -23 22 c-13
12 -31 42 -40 66 -63 165 108 453 306 514 35 10 90 11 90 0z m-2566 -307 c23
-9 8 -31 -42 -66 -43 -30 -46 -30 -58 -13 -12 16 -12 22 0 39 22 35 67 53 100
40z m1798 -149 c69 -82 27 -261 -92 -389 -75 -80 -146 -117 -237 -123 l-68 -5
84 49 c103 59 217 163 255 233 43 79 47 174 10 265 -7 18 -6 19 11 5 11 -8 27
-24 37 -35z m-1179 -192 c111 -151 81 -366 -72 -521 -104 -106 -209 -152 -345
-152 -81 0 -147 14 -205 44 -42 22 -41 58 0 96 27 24 31 33 26 59 -6 26 -3 31
13 31 21 0 50 -24 68 -55 9 -17 12 -16 53 6 45 26 51 39 35 88 l-8 23 38 -26
c49 -33 67 -33 97 3 21 26 23 35 17 78 -4 26 -7 49 -6 51 2 1 17 -3 35 -9 64
-22 107 36 97 129 -6 50 -5 52 13 42 11 -5 26 -7 35 -4 21 8 40 69 40 131 0
45 2 50 17 42 9 -5 33 -30 52 -56z m2501 -15 c9 -12 16 -30 16 -39 0 -15 -3
-15 -37 2 -25 13 -58 19 -101 19 -46 0 -63 3 -60 13 3 7 27 13 62 15 38 2 59
8 63 17 6 18 35 5 57 -27z m-235 -454 c-15 -14 -66 -49 -115 -78 -85 -49 -108
-76 -86 -98 6 -6 22 -6 46 0 20 6 36 8 36 6 0 -10 -55 -112 -107 -201 -71
-121 -92 -171 -118 -272 l-21 -84 -21 29 c-30 41 -63 145 -63 195 0 112 61
248 158 351 75 79 143 125 232 155 84 29 90 28 59 -3z m-1081 -102 c17 -13 32
-26 32 -30 0 -4 -39 -7 -88 -7 -76 0 -94 -4 -142 -29 -70 -36 -174 -120 -229
-186 -23 -28 -47 -48 -52 -45 -16 10 -10 74 10 113 37 72 141 152 253 193 73
27 171 23 216 -9z m-2287 -178 c24 -43 34 -104 16 -104 -26 0 -48 37 -54 90
-5 43 -3 52 8 48 8 -3 21 -18 30 -34z m970 -235 c-184 -53 -300 -129 -355
-235 l-25 -49 -1 49 c-1 153 166 264 395 265 l90 0 -104 -30z m-1883 -32 c7
-7 17 -38 23 -68 6 -30 17 -64 25 -76 13 -21 13 -23 -6 -23 -11 0 -25 11 -34
28 -12 24 -36 118 -36 142 0 14 16 12 28 -3z m3719 -272 c-1 -25 -6 -45 -11
-45 -5 0 -26 16 -48 36 -30 27 -46 34 -63 30 -23 -6 -41 5 -28 18 3 3 39 6 79
6 l72 0 -1 -45z m-2669 -295 c38 -64 38 -162 0 -240 -77 -157 -278 -270 -458
-257 -85 6 -180 42 -180 67 0 25 22 36 88 45 l54 7 -6 37 c-18 101 -19 114 -5
109 8 -2 28 -25 44 -51 33 -50 78 -75 101 -56 22 18 32 70 24 129 -4 30 -6 57
-4 58 1 2 14 -14 28 -37 34 -54 61 -68 87 -45 25 22 24 33 -6 104 -27 64 -33
124 -12 118 6 -3 21 -30 32 -61 26 -73 35 -81 63 -61 33 23 51 64 63 149 l12
76 24 -23 c14 -13 37 -43 51 -68z m2352 60 c24 -13 22 -14 -38 -26 -128 -26
-205 -84 -334 -251 -88 -114 -161 -193 -179 -193 -22 0 -5 139 25 203 78 163
278 293 436 284 36 -2 77 -10 90 -17z m-3663 -127 c56 -64 87 -139 91 -216 4
-60 1 -75 -27 -132 -46 -93 -140 -171 -259 -214 -172 -63 -342 -49 -465 39
-55 40 -57 42 -57 88 0 26 13 86 28 133 23 70 30 83 40 72 23 -24 58 -15 91
22 17 20 32 46 33 58 1 12 2 31 2 41 2 34 26 29 41 -7 19 -46 30 -52 65 -37
36 15 44 38 31 87 -6 21 -11 46 -11 57 0 30 26 2 46 -50 24 -62 45 -59 119 20
69 75 93 87 155 82 37 -3 50 -11 77 -43z m2910 -253 c37 -22 73 -40 80 -40 18
0 16 -15 -4 -31 -57 -48 -55 -161 4 -188 35 -16 18 -34 -25 -27 -26 4 -38 1
-47 -11 -10 -13 -15 -8 -33 34 -21 49 -44 76 -72 85 -8 3 6 11 33 18 52 14 87
48 87 86 0 17 -10 29 -40 44 -34 17 -60 45 -60 64 0 11 11 6 77 -34z m-147 -8
c0 -4 -4 -12 -9 -17 -5 -6 -14 -27 -21 -47 -11 -38 -51 -78 -76 -78 -18 0 -7
67 15 100 25 36 91 66 91 42z m-435 -146 c-133 -65 -223 -131 -332 -243 -80
-82 -81 -83 -71 -46 20 74 68 160 115 206 64 63 96 83 168 106 74 24 94 28
170 30 l59 1 -109 -54z m-3764 -156 c23 0 34 7 47 30 20 35 20 35 97 11 188
-59 255 -127 255 -262 0 -149 -97 -243 -281 -270 -157 -23 -350 36 -451 136
-67 68 -75 92 -53 164 10 33 14 64 11 70 -5 8 4 10 32 5 32 -5 44 -2 61 15 12
12 21 34 21 51 0 33 6 36 34 15 11 -8 31 -15 44 -15 30 0 92 60 92 90 0 20 2
20 31 -9 20 -21 40 -31 60 -31z m719 -79 c0 -26 -24 -33 -90 -25 -38 4 -60 3
-64 -5 -10 -16 -26 -14 -26 3 0 21 18 30 75 37 94 12 105 11 105 -10z m1928
-16 c49 -15 112 -57 112 -76 0 -5 -10 -5 -22 0 -44 16 -156 21 -233 10 -120
-16 -199 -52 -268 -121 -32 -32 -60 -58 -63 -58 -12 0 -1 59 15 86 38 62 164
133 282 159 85 18 115 18 177 0z m-3189 -216 c17 -40 4 -54 -43 -45 -39 8 -42
13 -24 51 16 36 50 33 67 -6z m2225 -290 c14 -17 26 -38 26 -47 0 -23 -28 -65
-89 -137 -28 -33 -57 -74 -63 -93 -9 -23 -17 -31 -28 -26 -55 21 -170 14 -170
-11 0 -44 105 -117 240 -168 83 -31 166 -73 176 -88 4 -7 3 -9 -3 -6 -18 11
-158 37 -264 48 -118 13 -256 2 -324 -27 -49 -20 -55 -11 -17 24 32 30 68 43
170 63 57 11 62 14 56 33 -19 62 -116 127 -211 141 -64 10 -51 35 18 35 29 0
29 0 29 60 l0 59 44 -44 c50 -50 98 -65 146 -45 17 7 30 15 30 18 0 2 -18 24
-40 48 -45 49 -58 87 -39 110 17 20 29 1 29 -48 l0 -38 44 0 c57 0 106 18 106
38 -1 10 -7 28 -15 42 -22 38 -19 70 5 70 13 0 26 -12 37 -35 22 -45 40 -44
49 3 11 63 20 67 58 21z m-804 -507 c0 -13 -18 -77 -40 -142 -22 -65 -40 -128
-40 -140 0 -24 18 -61 34 -72 6 -5 1 -8 -11 -8 -13 0 -33 10 -44 21 -36 36
-17 148 51 313 32 77 49 86 50 28z m148 -222 c4 -27 -37 -160 -49 -160 -24 0
-59 22 -59 37 0 10 16 40 35 67 19 27 35 58 35 68 0 29 34 18 38 -12z"/>
<path d="M9221 11294 c-44 -37 -56 -89 -36 -166 61 -239 324 -487 518 -488 54
0 28 55 -73 155 -93 92 -107 133 -85 248 16 81 18 164 6 207 -10 36 -110 68
-218 69 -74 1 -84 -2 -112 -25z"/>
<path d="M4558 11285 c-83 -30 -168 -107 -209 -187 -44 -86 -33 -203 25 -257
l24 -22 7 58 c9 77 43 143 127 250 61 76 108 150 108 168 0 9 -44 4 -82 -10z"/>
<path d="M8313 11220 c-157 -37 -192 -231 -74 -404 48 -69 101 -101 170 -101
53 0 56 1 59 27 4 34 -29 98 -77 151 -75 83 -76 98 -16 213 57 107 58 124 8
123 -21 -1 -52 -4 -70 -9z"/>
<path d="M2588 10978 c4 -18 7 -60 6 -93 -1 -96 -31 -145 -215 -342 -37 -39
-73 -81 -79 -94 -12 -21 -11 -22 31 -15 119 19 253 124 310 243 40 84 50 191
25 276 -16 55 -18 57 -51 57 -34 0 -34 -1 -27 -32z"/>
<path d="M7213 10955 c-29 -15 -82 -54 -118 -88 l-65 -62 10 -95 c12 -111 39
-174 89 -207 31 -21 91 -32 91 -17 0 3 -7 31 -16 61 -35 120 -3 212 114 335
41 43 72 81 68 85 -3 4 -32 8 -64 11 -47 3 -66 -1 -109 -23z"/>
<path d="M10350 10897 c0 -47 22 -77 72 -96 24 -9 27 -7 38 20 13 31 7 83 -11
106 -7 7 -31 13 -55 13 l-44 0 0 -43z"/>
<path d="M3580 10903 c-14 -2 -62 -22 -106 -43 -174 -84 -270 -223 -221 -319
19 -38 32 -35 62 11 16 24 85 102 154 173 69 72 137 142 150 158 27 29 24 31
-39 20z"/>
<path d="M5955 10826 c-61 -28 -129 -100 -160 -169 -30 -69 -48 -161 -40 -206
10 -59 52 -134 87 -158 65 -43 64 -45 64 74 1 66 8 131 18 168 23 88 80 196
131 253 36 40 42 51 29 56 -31 12 -80 5 -129 -18z"/>
<path d="M9760 10593 c-21 -8 -50 -34 -61 -55 -8 -15 -5 -20 16 -28 48 -18
115 25 115 74 0 16 -38 21 -70 9z"/>
<path d="M4834 10561 c-99 -24 -212 -115 -264 -213 -28 -52 -34 -74 -35 -125
0 -52 4 -67 30 -104 42 -59 51 -58 47 4 -5 82 21 127 149 252 92 90 149 163
149 190 0 7 -37 5 -76 -4z"/>
<path d="M9468 10385 c-54 -20 -92 -51 -119 -98 -21 -37 -24 -54 -23 -137 0
-76 5 -105 23 -145 29 -64 81 -136 132 -183 41 -37 136 -102 150 -102 4 0 0
26 -8 58 -10 37 -14 85 -11 139 4 69 10 93 42 157 35 72 119 172 175 209 29
19 22 31 -37 61 -107 54 -242 71 -324 41z"/>
<path d="M8455 10242 c-93 -43 -147 -151 -147 -292 0 -115 26 -184 92 -243 27
-24 63 -47 81 -51 59 -12 59 -11 42 47 -21 68 -22 215 -1 283 21 67 41 106 95
182 l44 62 -28 11 c-51 21 -134 21 -178 1z"/>
<path d="M6205 10181 c-33 -9 -84 -30 -113 -46 -73 -40 -173 -148 -213 -232
-30 -61 -34 -77 -34 -158 0 -81 3 -95 28 -137 15 -27 31 -48 36 -48 9 0 21 25
63 129 92 233 155 305 303 352 88 27 160 65 179 94 14 22 13 24 -12 33 -91 36
-148 39 -237 13z"/>
<path d="M3745 10159 c-107 -10 -222 -88 -272 -184 -19 -36 -43 -121 -43 -154
0 -22 9 -15 78 50 128 124 215 190 358 275 17 10 14 12 -21 15 -22 2 -67 1
-100 -2z"/>
<path d="M1695 10088 c-4 -24 -29 -100 -56 -170 -33 -85 -49 -142 -49 -173 0
-25 3 -45 8 -45 13 0 114 144 141 200 18 40 27 76 29 130 4 74 3 76 -23 88
-39 18 -43 16 -50 -30z"/>
<path d="M2528 10105 c-88 -32 -178 -116 -223 -210 -24 -47 -36 -128 -22 -141
4 -4 21 3 39 16 31 21 47 39 147 167 56 72 107 97 183 90 32 -3 58 -2 58 3 0
17 -46 63 -76 76 -40 17 -58 17 -106 -1z"/>
<path d="M7480 10080 c-110 -23 -221 -110 -280 -221 -25 -48 -31 -71 -32 -128
-1 -60 2 -75 25 -109 23 -35 84 -92 99 -92 3 0 8 36 11 79 12 156 84 259 270
388 78 54 86 63 69 72 -29 15 -112 21 -162 11z"/>
<path d="M4979 9876 c-84 -34 -122 -60 -185 -129 -109 -118 -153 -271 -105
-365 12 -23 25 -42 29 -42 4 0 17 27 30 59 35 91 117 220 178 282 75 76 144
115 253 143 88 22 91 24 69 37 -75 47 -178 53 -269 15z"/>
<path d="M3955 9600 c-165 -35 -294 -174 -303 -329 l-5 -64 104 80 c197 151
224 171 289 206 58 32 99 50 165 72 18 6 16 8 -15 21 -42 18 -179 26 -235 14z"/>
<path d="M5997 9452 c-34 -37 -47 -105 -62 -316 -18 -269 -35 -337 -98 -403
-60 -64 -72 -40 -69 144 l2 133 -28 7 c-86 24 -187 -3 -249 -69 -58 -61 -86
-131 -90 -232 -3 -56 1 -110 9 -141 12 -48 15 -50 53 -55 110 -14 216 19 355
109 l65 42 7 -27 c9 -34 24 -44 64 -44 35 0 37 4 49 95 7 51 28 95 45 95 6 0
10 -9 10 -20 0 -11 16 -37 35 -59 19 -21 35 -44 35 -51 0 -10 19 -11 82 -6
112 9 159 22 254 67 133 63 234 171 309 330 39 83 44 71 23 -50 -14 -81 -1
-143 34 -162 30 -16 131 -5 170 18 66 39 95 115 66 178 l-11 25 -26 -23 c-14
-14 -47 -36 -73 -51 l-47 -27 -12 23 c-18 33 -14 104 10 172 31 87 29 106 -11
106 -18 0 -60 12 -93 26 -95 41 -95 41 -95 6 0 -36 -34 -208 -55 -276 -36
-118 -96 -179 -176 -180 -56 -1 -62 3 -53 38 4 17 22 36 50 52 41 24 74 58 74
76 0 5 -20 8 -45 8 -49 0 -85 25 -85 59 0 26 6 29 84 40 36 5 70 12 76 16 16
10 -25 52 -73 76 -37 19 -39 20 -75 2 -50 -24 -81 -85 -130 -253 -22 -74 -47
-153 -56 -175 l-17 -39 -29 30 c-21 21 -33 45 -40 85 -13 71 -6 92 60 163 27
31 50 63 50 70 0 8 3 21 6 30 5 12 0 16 -21 16 -44 0 -92 -29 -130 -78 -35
-46 -101 -100 -110 -90 -3 3 4 40 15 84 10 43 25 131 31 194 17 169 -13 269
-64 212z m-341 -567 c18 -44 18 -59 -2 -125 -11 -36 -30 -68 -60 -99 l-44 -46
-24 27 c-75 84 -9 273 97 277 11 1 23 -12 33 -34z"/>
<path d="M9545 9425 c-34 -34 -31 -52 10 -64 62 -17 115 11 115 61 0 27 -2 28
-50 28 -41 0 -56 -5 -75 -25z"/>
<path d="M1819 9426 c-148 -40 -303 -220 -316 -365 -3 -32 0 -69 7 -86 l12
-30 16 35 c63 141 81 169 147 235 69 70 172 135 213 135 10 0 36 -14 57 -30
63 -50 96 -25 53 41 -23 33 -97 80 -128 78 -8 0 -36 -6 -61 -13z"/>
<path d="M5324 9301 c-63 -38 -96 -97 -155 -272 -23 -68 -51 -144 -62 -168
-19 -40 -21 -42 -34 -25 -9 13 -13 58 -13 163 0 149 -9 193 -40 199 -22 4 -67
-72 -90 -148 -10 -36 -23 -108 -29 -160 -29 -249 -35 -289 -54 -340 -24 -65
-46 -95 -91 -126 -36 -25 -46 -23 -46 10 0 29 -27 66 -48 66 -23 0 -52 -50
-52 -90 0 -32 21 -82 48 -112 23 -27 106 -24 157 5 54 30 86 83 125 202 36
113 50 136 50 84 1 -83 39 -159 80 -159 23 0 46 75 69 230 19 129 50 233 76
259 13 14 15 2 15 -107 0 -143 15 -252 41 -304 23 -45 68 -83 83 -68 5 5 18
10 28 10 14 0 17 6 14 23 -9 42 -25 152 -36 238 -13 105 -13 467 0 529 18 86
14 92 -36 61z"/>
<path d="M9674 9276 c-3 -8 -4 -26 -2 -41 3 -23 12 -29 76 -51 76 -27 118 -26
129 2 10 27 -16 64 -60 84 -51 23 -135 27 -143 6z"/>
<path d="M9494 9266 c-3 -8 -4 -29 -2 -48 4 -39 27 -47 84 -28 26 9 40 22 50
46 8 18 14 36 14 39 0 3 -32 5 -70 5 -51 0 -72 -4 -76 -14z"/>
<path d="M9030 9206 c-143 -30 -253 -133 -300 -280 -44 -136 -13 -279 87 -395
33 -39 115 -101 133 -101 4 0 10 46 13 103 6 110 34 212 80 290 50 85 156 164
262 196 22 7 46 14 53 17 20 6 -45 91 -97 127 -25 17 -70 36 -100 44 -65 15
-60 15 -131 -1z"/>
<path d="M2890 9195 c-145 -41 -263 -156 -289 -282 -18 -90 -9 -90 92 -1 119
105 211 169 321 225 72 36 86 47 73 54 -31 18 -140 20 -197 4z"/>
<path d="M1117 9148 l-27 -10 19 -26 c36 -53 42 -95 39 -271 -3 -196 2 -214
49 -149 70 99 97 177 97 288 1 76 -2 90 -27 133 -27 46 -29 47 -75 46 -26 0
-59 -5 -75 -11z"/>
<path d="M7895 9027 c-138 -36 -282 -159 -351 -304 -34 -70 -38 -86 -38 -158
0 -67 4 -88 26 -131 15 -28 41 -63 59 -78 29 -25 100 -66 114 -66 3 0 5 39 5
88 2 306 187 512 461 512 27 0 49 4 49 8 0 4 -19 27 -42 49 -77 76 -183 105
-283 80z"/>
<path d="M4124 8600 c-102 -50 -105 -57 -107 -206 -2 -110 -6 -135 -24 -169
-41 -78 -105 -115 -197 -115 -47 0 -56 3 -71 26 -22 34 -31 131 -16 177 14 41
63 87 92 87 14 0 19 -7 19 -27 0 -16 9 -43 20 -61 16 -26 24 -31 38 -23 51 27
70 77 46 126 -33 71 -118 103 -188 70 -48 -23 -79 -76 -117 -200 -46 -152 -67
-199 -102 -232 -77 -72 -98 -40 -72 107 9 52 15 111 14 130 l-4 35 -73 -1
c-93 -2 -160 -34 -231 -109 -120 -126 -144 -288 -57 -383 l34 -36 63 31 c35
18 114 46 174 62 136 38 177 54 237 92 44 28 48 29 75 16 51 -26 90 -29 149
-12 45 13 69 29 122 80 l66 65 50 -25 c146 -73 336 35 336 190 l0 36 -30 -18
c-17 -9 -44 -34 -61 -55 -31 -39 -94 -78 -126 -78 -10 0 -31 16 -47 36 -37 47
-28 69 54 124 38 26 67 54 75 73 l13 32 -71 5 c-66 5 -72 7 -75 28 -4 29 24
62 52 62 12 -1 32 -7 46 -15 28 -16 68 -19 89 -6 11 7 11 15 1 45 -24 73 -96
87 -196 36z m-784 -369 c25 -49 2 -185 -42 -241 -39 -50 -92 -65 -103 -28 -12
37 -7 112 10 152 16 37 100 136 116 136 5 0 13 -9 19 -19z"/>
<path d="M2819 8596 c-228 -79 -386 -263 -316 -369 9 -15 35 -36 57 -47 l39
-20 12 22 c7 13 15 65 18 116 6 89 8 95 36 118 69 56 231 91 295 64 41 -17 67
-55 75 -113 l7 -47 -61 -59 c-73 -70 -81 -101 -26 -101 117 0 203 100 221 258
l6 60 -53 51 c-100 95 -180 112 -310 67z"/>
<path d="M4521 8606 c-71 -26 -95 -94 -40 -117 46 -19 115 1 157 46 40 43 40
60 1 74 -40 14 -74 13 -118 -3z"/>
<path d="M1930 8557 c-93 -44 -188 -171 -205 -274 -11 -67 14 -56 124 55 107
108 146 128 235 120 51 -4 56 4 31 52 -36 70 -102 87 -185 47z"/>
<path d="M6780 8494 c-175 -47 -330 -235 -330 -401 0 -55 30 -142 66 -188 l29
-38 7 54 c19 148 76 237 279 429 126 120 148 145 133 151 -31 12 -126 9 -184
-7z"/>
<path d="M2848 8400 c-36 -54 -55 -109 -83 -250 -45 -223 -72 -289 -141 -349
-41 -37 -50 -38 -65 -10 -9 17 -6 32 16 81 15 33 24 62 21 65 -3 3 -27 0 -54
-7 -113 -27 -141 -133 -60 -226 43 -48 77 -64 142 -64 72 0 119 23 141 69 37
77 71 188 95 310 15 75 23 307 13 361 l-9 45 -16 -25z"/>
<path d="M1274 8244 c-53 -19 -101 -69 -109 -116 -9 -50 -1 -49 114 7 51 25
99 45 108 45 9 0 34 -15 57 -33 70 -58 118 -73 129 -43 9 23 -11 81 -36 104
-52 49 -178 66 -263 36z"/>
<path d="M5536 8179 c-120 -30 -268 -153 -326 -273 -56 -114 -53 -212 10 -292
24 -29 31 -33 36 -20 3 8 -1 37 -10 63 -9 25 -16 55 -16 66 0 26 118 156 208
228 103 83 199 130 315 154 38 8 34 20 -18 51 -51 29 -135 39 -199 23z"/>
<path d="M8155 7883 c-159 -57 -285 -188 -342 -356 -33 -97 -30 -237 5 -310
29 -57 93 -123 152 -156 l42 -23 -7 23 c-15 47 -8 182 14 249 61 190 234 356
453 435 33 12 58 26 56 31 -7 20 -69 65 -124 91 -76 35 -176 41 -249 16z"/>
<path d="M586 7849 c-14 -17 -26 -34 -26 -39 0 -5 -3 -15 -6 -24 -5 -14 -3
-14 30 -1 87 36 123 13 188 -121 28 -57 60 -111 72 -120 20 -14 22 -13 33 13
31 71 0 193 -64 255 -52 49 -93 68 -152 68 -43 0 -53 -4 -75 -31z"/>
<path d="M4209 7837 c-70 -30 -104 -53 -158 -112 -66 -72 -101 -155 -101 -240
0 -92 11 -108 36 -54 31 71 129 156 285 251 202 122 189 109 144 143 -52 40
-129 45 -206 12z"/>
<path d="M4830 7821 c-58 -12 -107 -41 -149 -86 -45 -49 -61 -95 -61 -177 l0
-58 49 0 c53 0 55 1 122 98 16 23 42 47 57 53 34 13 81 4 98 -19 29 -38 13
-85 -89 -264 -92 -161 -107 -201 -106 -287 0 -66 26 -156 44 -156 24 1 295 69
341 86 27 11 65 35 84 54 30 31 34 42 35 88 l0 52 -39 -3 c-21 -2 -79 -19
-129 -39 -83 -32 -158 -45 -172 -31 -10 10 22 105 47 141 12 18 46 58 74 91
69 76 94 131 94 202 0 78 -17 128 -62 178 -55 64 -153 95 -238 77z"/>
<path d="M7055 7664 c-173 -27 -386 -179 -460 -329 -27 -54 -30 -70 -30 -155
0 -85 3 -100 27 -140 14 -25 42 -63 61 -85 l35 -40 11 60 c31 158 110 307 215
402 69 64 180 120 261 132 62 9 184 -2 218 -21 30 -16 29 -4 -4 46 -30 45 -85
89 -142 114 -31 13 -146 23 -192 16z"/>
<path d="M3211 7514 c-82 -22 -149 -62 -222 -134 -85 -84 -121 -157 -127 -260
-6 -112 26 -211 42 -127 10 55 61 149 113 213 46 54 119 120 295 263 31 25 57
49 57 54 1 12 -100 7 -158 -9z"/>
<path d="M268 7325 c4 -129 -3 -216 -24 -287 -10 -33 26 -7 47 33 20 40 38
177 39 292 0 51 -3 61 -27 82 -16 13 -31 25 -34 25 -3 0 -3 -65 -1 -145z"/>
<path d="M2083 7406 c-173 -55 -300 -281 -235 -420 l18 -40 22 61 c29 80 91
171 154 228 52 47 164 118 206 130 32 9 27 21 -18 39 -48 19 -90 19 -147 2z"/>
<path d="M11724 7356 c-8 -34 2 -61 32 -81 30 -19 40 -14 49 26 9 39 -16 79
-50 79 -18 0 -26 -7 -31 -24z"/>
<path d="M5720 7309 c-137 -22 -293 -139 -355 -264 -25 -52 -29 -72 -30 -145
0 -71 4 -93 24 -132 14 -26 35 -57 47 -69 l23 -22 19 44 c10 24 36 96 56 160
57 176 79 196 291 270 118 40 207 87 202 104 -5 16 -56 37 -122 51 -68 15 -78
15 -155 3z"/>
<path d="M8713 7204 c-25 -49 -26 -56 -12 -70 18 -17 114 -30 152 -20 14 3 33
13 42 22 15 15 13 19 -26 53 -51 43 -62 50 -99 61 -28 8 -31 6 -57 -46z"/>
<path d="M1223 7020 c-179 -90 -270 -343 -175 -488 15 -23 16 -23 32 30 62
202 205 330 371 332 43 1 69 5 69 12 0 6 -13 30 -29 54 -63 94 -158 115 -268
60z"/>
<path d="M4428 6951 c-186 -61 -328 -246 -316 -410 6 -86 78 -225 78 -151 0
19 6 35 43 125 48 112 143 223 254 293 51 33 207 101 231 102 23 0 12 16 -25
35 -56 27 -192 30 -265 6z"/>
<path d="M12185 6924 c3 -20 6 -86 6 -148 -1 -219 -55 -370 -174 -490 l-69
-68 7 -52 c24 -182 173 -299 286 -223 81 54 130 173 156 377 24 185 2 369 -61
507 -30 64 -57 98 -98 119 -48 25 -61 19 -53 -22z"/>
<path d="M629 6650 c-89 -59 -159 -186 -159 -288 0 -32 3 -62 7 -65 4 -4 32
32 63 80 75 116 122 158 195 173 31 6 68 9 82 5 22 -5 24 -3 18 17 -34 109
-114 140 -206 78z"/>
<path d="M3323 6635 c-138 -63 -234 -217 -232 -370 0 -33 6 -75 13 -93 l12
-34 40 44 c22 23 62 81 89 127 59 99 106 156 146 176 17 9 57 15 101 15 86 0
122 15 126 52 2 19 -6 33 -33 55 -70 58 -174 69 -262 28z"/>
<path d="M7180 6427 c-143 -60 -264 -186 -328 -342 -21 -51 -25 -77 -26 -170
-1 -102 1 -114 27 -163 28 -53 107 -142 127 -142 5 0 10 11 10 25 0 65 62 238
118 325 106 167 235 264 412 309 l74 18 -52 55 c-71 75 -127 101 -227 105 -66
3 -89 0 -135 -20z"/>
<path d="M236 6317 c-17 -12 -13 -22 59 -128 43 -63 90 -127 106 -144 l29 -30
0 25 c0 38 -25 124 -62 211 l-33 79 -41 0 c-22 0 -48 -6 -58 -13z"/>
<path d="M2294 6239 c-138 -53 -225 -205 -191 -333 l8 -29 83 82 c63 61 102
90 161 118 70 33 87 37 181 41 57 3 104 9 104 13 0 18 -75 91 -111 110 -52 26
-165 25 -235 -2z"/>
<path d="M6028 6118 c-162 -21 -337 -147 -412 -297 -51 -101 -56 -197 -18
-285 21 -47 80 -118 92 -111 4 3 11 22 15 42 32 178 155 344 308 417 90 44
211 69 308 64 38 -2 69 1 69 5 0 4 -21 30 -46 57 -81 86 -192 124 -316 108z"/>
<path d="M11433 5925 c-38 -16 -41 -25 -14 -42 12 -7 21 -29 26 -60 7 -48 19
-73 36 -73 5 0 9 12 9 26 0 14 7 50 16 80 9 31 13 62 10 70 -7 18 -41 17 -83
-1z"/>
<path d="M1527 5879 c-84 -20 -166 -78 -197 -140 -29 -56 -26 -106 11 -165 29
-44 33 -47 43 -30 34 57 70 99 106 121 51 32 138 55 212 55 31 0 59 4 63 10 7
12 -20 78 -43 104 -24 26 -91 56 -127 55 -16 -1 -47 -5 -68 -10z"/>
<path d="M4790 5774 c-198 -52 -320 -199 -320 -383 0 -27 3 -52 8 -54 4 -3 25
1 47 9 28 9 62 37 110 89 89 95 124 111 281 125 65 6 135 15 154 20 38 10 110
55 110 69 0 13 -75 78 -112 97 -84 44 -182 53 -278 28z"/>
<path d="M11935 5738 c-48 -27 -47 -73 3 -153 36 -59 37 -62 36 -155 -1 -116
-13 -148 -120 -302 -77 -111 -130 -212 -136 -258 -2 -21 3 -27 32 -37 56 -19
138 -16 186 8 180 86 269 490 178 807 -9 33 -20 52 -30 52 -8 0 -31 8 -52 19
-55 28 -75 31 -97 19z"/>
<path d="M823 5477 c-40 -12 -75 -28 -79 -37 -16 -40 -23 -127 -13 -162 14
-53 35 -49 112 21 65 59 108 78 147 66 19 -6 20 -2 20 52 0 33 -5 64 -12 71
-18 18 -94 13 -175 -11z"/>
<path d="M3678 5401 c-148 -49 -227 -146 -228 -282 0 -36 3 -68 6 -72 9 -9
112 39 185 87 144 96 210 116 298 90 81 -23 119 -21 149 9 23 23 24 28 13 55
-17 41 -57 77 -116 103 -70 32 -226 37 -307 10z"/>
<path d="M7062 5300 c-12 -5 -30 -26 -39 -46 -17 -35 -17 -36 2 -50 25 -19
121 -19 128 0 6 14 -6 76 -17 95 -8 13 -42 13 -74 1z"/>
<path d="M413 5190 c-48 -29 -65 -61 -61 -117 3 -41 6 -48 26 -51 13 -2 54 13
92 32 38 20 76 36 84 36 11 0 16 10 16 34 0 71 -88 108 -157 66z"/>
<path d="M2761 5069 c-95 -18 -186 -84 -217 -157 -17 -40 -16 -154 1 -171 6
-6 41 11 95 45 47 31 114 70 150 87 58 29 75 32 152 32 81 0 88 2 88 20 0 29
-33 79 -73 109 -27 21 -120 50 -146 45 -3 -1 -26 -5 -50 -10z"/>
<path d="M6793 5030 c-43 -17 -17 -82 37 -95 34 -8 80 27 80 61 0 38 -63 56
-117 34z"/>
<path d="M6918 4958 c-56 -20 -21 -88 45 -88 59 0 114 54 92 89 -8 14 -101 13
-137 -1z"/>
<path d="M6672 4905 c-28 -12 -52 -47 -52 -76 0 -10 53 -12 100 -3 37 8 60 49
38 70 -22 20 -52 24 -86 9z"/>
<path d="M6977 4794 c-12 -68 -8 -154 8 -184 13 -26 42 -50 59 -50 13 0 4 67
-20 153 -34 119 -40 128 -47 81z"/>
<path d="M6812 4804 c-12 -8 -26 -24 -32 -34 -8 -16 -5 -21 17 -32 26 -13 28
-18 28 -76 0 -71 9 -82 68 -82 32 0 37 3 37 23 0 12 -7 42 -16 66 -18 53 -21
86 -11 124 7 26 6 27 -31 27 -20 0 -48 -7 -60 -16z"/>
<path d="M1890 4710 c-49 -11 -59 -20 -95 -91 -53 -104 -56 -185 -8 -234 l27
-27 19 44 c45 105 136 148 320 148 88 0 97 2 97 19 0 36 -44 86 -102 114 -63
32 -176 44 -258 27z"/>
<path d="M10870 4645 c-5 -14 -10 -40 -10 -56 0 -22 5 -29 20 -29 47 0 69 102
23 108 -17 3 -26 -3 -33 -23z"/>
<path d="M4998 4631 c-141 -46 -287 -163 -342 -276 -37 -75 -41 -168 -11 -230
19 -38 98 -125 115 -125 4 0 20 30 35 68 79 198 199 319 362 367 27 7 85 17
131 21 45 3 82 10 82 13 0 4 -13 28 -29 53 -72 113 -200 154 -343 109z"/>
<path d="M11410 4604 c-46 -16 -110 -48 -107 -53 75 -133 102 -285 76 -427
-32 -177 -118 -313 -239 -374 l-55 -28 40 -18 c64 -28 177 -24 240 8 115 59
220 208 268 379 30 107 38 166 38 289 0 143 -7 159 -84 198 -44 23 -145 38
-177 26z"/>
<path d="M6870 4509 c0 -39 22 -131 38 -156 4 -6 37 -13 75 -15 78 -4 79 -1
47 85 -27 72 -87 127 -139 127 -18 0 -21 -6 -21 -41z"/>
<path d="M10813 4520 c-18 -7 -23 -17 -23 -48 0 -44 14 -62 47 -62 27 0 43 32
43 86 0 29 -3 34 -22 33 -13 0 -33 -4 -45 -9z"/>
<path d="M1214 4346 c-76 -39 -91 -85 -53 -162 l20 -43 50 26 c58 29 122 32
224 12 75 -15 85 -9 85 46 0 78 -82 135 -204 142 -61 4 -78 1 -122 -21z"/>
<path d="M3845 4173 c-107 -14 -224 -83 -260 -154 -24 -45 -19 -122 12 -185
31 -63 54 -87 61 -65 11 32 87 102 138 127 75 37 161 53 281 54 l102 0 41 -60
c38 -56 94 -100 108 -85 4 3 6 39 6 78 -1 116 -55 195 -169 248 -92 43 -201
58 -320 42z"/>
<path d="M829 4061 c-30 -24 -31 -89 -3 -147 l19 -39 123 -3 123 -3 -7 28
c-24 104 -115 183 -210 183 -12 0 -32 -9 -45 -19z"/>
<path d="M5475 3978 c-29 -15 -45 -39 -45 -64 0 -19 7 -24 44 -29 29 -5 54 -2
72 7 35 16 53 60 34 82 -14 18 -75 21 -105 4z"/>
<path d="M5650 3910 c0 -57 1 -60 25 -60 14 0 47 -12 74 -27 41 -24 51 -26 65
-14 21 18 20 31 -3 31 -26 0 -41 21 -48 67 -8 53 -19 63 -69 63 l-44 0 0 -60z"/>
<path d="M5313 3870 c-47 -43 -36 -90 21 -90 40 0 71 22 84 60 9 25 8 31 -8
40 -30 16 -74 12 -97 -10z"/>
<path d="M2728 3855 c-120 -39 -156 -144 -97 -282 l18 -42 77 47 c73 45 81 47
160 51 142 5 222 -32 401 -187 73 -63 80 -59 69 39 -21 203 -238 368 -506 384
-51 3 -90 0 -122 -10z"/>
<path d="M5498 3832 c-16 -19 -28 -46 -28 -59 0 -21 4 -23 53 -23 68 0 97 19
97 66 0 31 -2 34 -31 34 -17 0 -38 4 -47 9 -13 7 -23 1 -44 -27z"/>
<path d="M5164 3740 c-46 -18 -42 -60 7 -80 27 -11 34 -10 57 7 18 14 27 29
27 49 0 26 -4 29 -35 31 -19 1 -45 -2 -56 -7z"/>
<path d="M5328 3739 c-11 -6 -18 -22 -18 -38 0 -34 31 -51 94 -51 37 0 45 4
50 23 9 32 8 35 -14 57 -22 22 -82 27 -112 9z"/>
<path d="M11645 3658 c-11 -6 -48 -38 -83 -70 l-63 -58 -3 -113 c-6 -167 -29
-223 -178 -431 -44 -61 -88 -127 -99 -148 l-19 -38 32 6 c174 30 315 147 413
343 62 123 84 210 92 366 5 106 4 123 -11 138 -20 19 -52 22 -81 5z"/>
<path d="M10198 3539 c-21 -12 -25 -74 -5 -82 19 -7 65 3 77 18 6 7 15 27 20
44 l9 31 -42 0 c-23 0 -50 -5 -59 -11z"/>
<path d="M4670 3480 c0 -49 1 -50 30 -50 39 0 86 24 101 52 17 31 -11 48 -78
48 l-53 0 0 -50z"/>
<path d="M10652 3491 c-69 -24 -121 -66 -154 -127 l-27 -49 35 -34 c56 -54 69
-87 68 -167 -1 -62 -6 -82 -40 -150 -52 -106 -152 -208 -252 -256 -69 -33 -71
-35 -48 -46 14 -6 51 -16 84 -23 185 -38 401 107 512 346 48 102 62 166 62
273 0 87 -15 161 -46 221 -16 30 -19 31 -79 31 -34 -1 -86 -9 -115 -19z"/>
<path d="M2016 3410 c-38 -12 -66 -38 -82 -77 -17 -39 -18 -76 -3 -142 l10
-50 37 14 c93 37 217 34 314 -6 29 -12 100 -53 157 -91 57 -38 109 -70 115
-71 17 -3 6 82 -17 133 -27 58 -146 177 -219 218 -108 62 -245 93 -312 72z"/>
<path d="M4559 3411 c-62 -20 -133 -83 -168 -148 -12 -23 -11 -23 54 -23 l65
0 6 41 c8 48 20 55 58 35 l29 -15 -27 -25 c-39 -36 -32 -68 17 -80 56 -14 91
1 95 42 2 23 -1 32 -11 32 -32 0 -39 26 -20 79 9 27 14 53 11 56 -11 11 -82
15 -109 6z"/>
<path d="M9882 3272 c-10 -7 -10 -11 3 -22 9 -7 22 -28 30 -47 14 -32 37 -43
50 -23 3 6 15 10 26 10 15 0 19 7 19 34 0 19 -4 38 -10 41 -17 11 -105 16
-118 7z"/>
<path d="M3888 3125 c-28 -16 -46 -51 -31 -66 4 -4 35 -10 68 -11 l60 -3 3 48
3 47 -38 0 c-21 -1 -50 -7 -65 -15z"/>
<path d="M1497 3109 c-96 -23 -108 -60 -52 -167 l36 -68 47 6 c54 6 134 -5
173 -26 15 -7 64 -54 110 -104 46 -50 94 -97 107 -106 l25 -16 -7 56 c-9 79
-39 153 -96 233 -101 145 -232 218 -343 192z"/>
<path d="M3501 2997 c-14 -6 -31 -27 -38 -45 -13 -31 -12 -33 13 -42 64 -25
124 0 124 51 0 22 -6 32 -26 39 -33 13 -44 12 -73 -3z"/>
<path d="M3255 2948 c-46 -27 -58 -70 -25 -88 11 -6 44 -10 73 -8 52 3 52 3
50 36 -2 60 -49 88 -98 60z"/>
<path d="M3595 2875 c-14 -13 -25 -36 -25 -50 0 -22 3 -25 24 -19 25 6 54 -5
80 -32 15 -14 16 -14 17 3 2 40 -3 89 -12 105 -14 26 -56 22 -84 -7z"/>
<path d="M3047 2870 c-15 -12 -27 -27 -27 -33 1 -7 23 -22 50 -35 41 -19 53
-32 72 -73 27 -57 39 -64 78 -44 16 8 36 15 45 15 8 0 15 7 15 16 0 33 -21 52
-70 64 -52 12 -57 19 -40 50 8 16 6 22 -13 35 -41 27 -80 29 -110 5z"/>
<path d="M2736 2819 c-31 -24 -33 -49 -7 -73 24 -21 67 -15 106 15 31 25 32
43 3 63 -31 22 -70 20 -102 -5z"/>
<path d="M3377 2813 c-14 -4 -17 -10 -12 -26 3 -12 9 -52 12 -89 l6 -68 34 0
c30 0 33 2 23 19 -16 31 -12 48 20 78 16 15 33 43 36 61 l7 32 -54 -1 c-30 -1
-62 -3 -72 -6z"/>
<path d="M2875 2748 c-36 -28 -62 -87 -43 -100 47 -30 99 -20 145 28 53 57 40
94 -33 94 -27 0 -51 -7 -69 -22z"/>
<path d="M2234 2686 c-31 -14 -44 -33 -44 -65 0 -22 82 -43 117 -30 32 12 33
71 1 93 -27 19 -34 19 -74 2z"/>
<path d="M10875 2676 c-70 -23 -123 -55 -178 -108 l-53 -53 4 -73 c8 -131 -35
-199 -222 -358 -64 -53 -116 -102 -116 -107 0 -24 204 21 305 68 223 103 352
282 410 572 5 26 2 34 -17 47 -34 22 -88 27 -133 12z"/>
<path d="M2656 2650 c-63 -19 -95 -81 -63 -123 11 -15 16 -15 64 -1 59 17 93
52 93 94 0 37 -33 48 -94 30z"/>
<path d="M2380 2611 c0 -30 28 -51 66 -51 32 0 35 2 29 23 -9 30 -33 47 -67
47 -21 0 -28 -5 -28 -19z"/>
<path d="M2280 2540 c-25 -25 -25 -41 -2 -70 13 -16 29 -23 50 -22 43 1 52 8
52 41 0 56 -62 89 -100 51z"/>
<path d="M9702 2500 c-43 -31 -87 -91 -168 -229 -58 -100 -142 -194 -196 -222
-53 -27 -127 -35 -182 -19 -49 14 -96 7 -96 -13 0 -7 13 -34 29 -59 63 -99
214 -131 381 -79 182 56 361 183 430 305 23 39 30 66 35 135 3 47 8 105 11
127 5 41 4 42 -40 63 -31 14 -65 21 -104 21 -49 0 -66 -5 -100 -30z"/>
<path d="M8770 2440 l0 -50 36 0 37 0 -6 41 c-6 43 -19 59 -49 59 -15 0 -18
-9 -18 -50z"/>
<path d="M2482 2442 c-29 -19 -40 -32 -36 -42 4 -8 9 -26 12 -40 2 -14 9 -31
15 -37 12 -16 73 -17 116 -2 l32 11 -3 67 -3 66 -45 2 c-34 1 -55 -5 -88 -25z"/>
<path d="M8842 2379 c-41 -40 -58 -50 -77 -46 -23 4 -25 1 -25 -29 0 -18 7
-40 16 -48 22 -22 54 -21 54 3 0 33 37 68 87 81 62 17 64 19 48 58 -19 44 -41
41 -103 -19z"/>
<path d="M2208 2305 c-33 -18 -53 -78 -44 -128 9 -47 69 -112 160 -176 l76
-52 32 22 c56 41 121 38 269 -11 71 -24 132 -41 135 -37 12 12 -50 98 -116
160 -180 171 -420 274 -512 222z"/>
<path d="M8643 2262 c-27 -4 -53 -38 -53 -69 0 -19 5 -23 34 -23 42 0 66 22
66 60 0 30 -12 38 -47 32z"/>
<path d="M7496 2175 c-29 -73 -31 -93 -14 -130 8 -18 19 -25 38 -25 42 0 68
28 94 103 21 60 22 67 6 67 -9 0 -27 11 -40 25 -38 41 -55 33 -84 -40z"/>
<path d="M7250 2123 c0 -9 -11 -39 -25 -68 -27 -55 -25 -85 5 -85 11 0 22 -4
25 -10 3 -5 21 -10 38 -10 25 1 37 8 55 36 12 20 22 41 22 47 0 27 -43 79 -75
93 -43 18 -45 18 -45 -3z"/>
<path d="M7692 2108 c-5 -7 -24 -41 -41 -75 l-31 -62 78 -54 c42 -30 83 -61
91 -70 7 -10 17 -17 21 -17 18 0 20 59 5 119 -10 39 -14 77 -10 102 6 36 5 39
-17 39 -12 1 -34 7 -48 15 -31 18 -35 18 -48 3z"/>
<path d="M7406 1968 c-31 -112 -31 -111 13 -151 44 -40 78 -53 110 -42 24 7
29 24 34 111 l3 60 -45 31 c-26 18 -58 35 -73 38 -26 7 -28 4 -42 -47z"/>
<path d="M8518 1992 c-38 -5 -46 -39 -19 -83 36 -58 29 -93 -31 -153 -69 -69
-146 -104 -353 -165 -262 -77 -267 -80 -225 -148 53 -87 175 -126 320 -104
162 25 319 96 424 192 110 101 126 164 92 346 -17 89 -19 92 -49 102 -39 11
-122 19 -159 13z"/>
<path d="M7887 1975 c-26 -25 -30 -54 -13 -80 14 -21 25 -25 62 -25 l45 0 -3
58 -3 57 -36 3 c-23 2 -42 -3 -52 -13z"/>
<path d="M9847 1925 c-10 -14 -26 -25 -37 -25 -14 0 -24 -16 -40 -65 -40 -120
-121 -204 -290 -302 -185 -108 -225 -133 -260 -162 -19 -16 -32 -32 -29 -36
13 -13 186 -17 256 -6 229 36 442 178 531 356 31 62 54 150 50 196 -3 41 -4
42 -53 55 -76 20 -107 17 -128 -11z"/>
<path d="M7617 1813 c-20 -19 10 -63 42 -63 21 0 61 36 61 55 0 11 -13 15 -48
15 -27 0 -52 -3 -55 -7z"/>
<path d="M7516 1734 c-9 -8 -16 -26 -16 -40 0 -20 5 -24 29 -24 32 0 61 30 61
62 0 23 -52 25 -74 2z"/>
<path d="M7347 1688 c-2 -7 -2 -66 1 -131 l5 -118 -29 -30 c-37 -39 -94 -73
-170 -101 -50 -18 -81 -22 -199 -22 -133 -1 -143 0 -200 27 -33 15 -78 42 -99
59 l-39 31 5 -89 c6 -101 26 -160 60 -173 94 -35 360 -52 491 -31 194 31 338
132 396 279 30 76 26 85 -79 192 -89 89 -136 125 -143 107z"/>
<path d="M3245 1616 c-28 -7 -69 -23 -93 -36 -37 -21 -42 -28 -42 -61 0 -97
62 -181 167 -225 52 -22 68 -25 81 -16 62 44 110 66 152 70 84 8 143 -15 411
-162 36 -20 83 -43 104 -51 l37 -16 -7 32 c-8 35 -36 89 -67 128 -20 26 -12
41 23 41 25 0 31 27 15 64 -16 38 -48 61 -98 69 -31 5 -38 3 -38 -11 0 -9 7
-26 15 -36 19 -25 19 -32 0 -40 -9 -3 -58 23 -123 68 -137 93 -278 162 -367
181 -82 17 -103 17 -170 1z"/>
<path d="M4263 1358 c4 -74 12 -128 22 -149 l16 -34 192 -2 c110 -2 212 2 239
8 47 11 128 60 128 78 0 16 -119 49 -265 75 -167 29 -237 53 -295 103 l-43 37
6 -116z"/>
<path d="M8701 1311 c-29 -5 -35 -12 -48 -51 -27 -80 -86 -145 -175 -191 -65
-33 -86 -40 -281 -98 -76 -23 -154 -48 -173 -56 l-35 -15 29 -37 c17 -21 33
-48 37 -61 8 -26 18 -26 225 -1 370 45 548 132 635 314 55 114 49 150 -30 186
-40 19 -116 23 -184 10z"/>
<path d="M3200 1094 c0 -9 23 -41 50 -71 28 -30 53 -65 56 -77 3 -15 20 -27
52 -38 26 -10 90 -43 142 -74 173 -103 233 -127 327 -132 45 -3 83 -1 83 4 0
25 -65 117 -113 160 -77 71 -173 118 -380 185 -193 63 -217 68 -217 43z"/>
<path d="M4260 1035 c0 -99 157 -227 350 -286 91 -28 290 -34 350 -10 47 19
107 59 114 77 4 12 -23 83 -39 101 -1 2 -26 -5 -56 -14 -87 -28 -291 -23 -394
10 -93 29 -198 75 -267 117 -26 17 -50 30 -53 30 -3 0 -5 -11 -5 -25z"/>
<path d="M7413 950 c-13 -5 -23 -14 -23 -20 0 -22 -52 -79 -98 -109 -120 -75
-352 -110 -543 -80 -39 6 -73 9 -75 6 -9 -9 27 -82 54 -110 36 -38 97 -73 163
-94 42 -14 89 -18 209 -17 177 0 208 7 378 79 104 44 115 52 134 88 30 59 22
151 -16 202 -44 57 -121 80 -183 55z"/>
<path d="M6180 837 c-54 -112 -177 -154 -420 -143 -80 3 -164 9 -187 12 -38 6
-43 4 -43 -12 0 -52 81 -120 178 -151 45 -14 91 -17 222 -17 149 1 174 4 253
28 107 32 153 55 188 93 53 56 45 98 -30 166 -37 34 -110 77 -128 77 -4 0 -19
-24 -33 -53z"/>
<path d="M6273 391 c-51 -13 -135 -57 -178 -94 -28 -24 -54 -36 -87 -40 -50
-7 -182 12 -263 37 -27 9 -70 16 -94 16 -37 0 -42 -2 -31 -14 38 -46 172 -107
300 -137 73 -17 290 -17 360 0 74 18 167 62 209 98 l35 30 -22 31 c-46 64
-143 95 -229 73z"/>
</g>
</svg>
